<?xml version="1.0" encoding="UTF-8"?>
<svg version="1.1" xmlns="http://www.w3.org/2000/svg" width="256" height="256">
<path d="M0 0 C1.258125 0.33902344 2.51625 0.67804687 3.8125 1.02734375 C23.98635641 7.03248533 40.80604846 18.71235434 56 33 C56.59039062 33.5259375 57.18078125 34.051875 57.7890625 34.59375 C73.91854492 49.57658675 84.25811578 71.06450955 90 92 C90.50853516 93.76150391 90.50853516 93.76150391 91.02734375 95.55859375 C98.9124458 128.73416137 91.43489595 164.24656986 74 193 C68.81427154 200.97992621 62.50490675 208.08246856 56 215 C55.4740625 215.59039062 54.948125 216.18078125 54.40625 216.7890625 C39.48290174 232.85450374 17.91504331 243.40315167 -3 249 C-4.88912109 249.50853516 -4.88912109 249.50853516 -6.81640625 250.02734375 C-27.02278233 254.4519488 -50.1836335 253.82348614 -70 248 C-71.8871875 247.49146484 -71.8871875 247.49146484 -73.8125 246.97265625 C-93.98635641 240.96751467 -110.80604846 229.28764566 -126 215 C-126.88558594 214.21109375 -126.88558594 214.21109375 -127.7890625 213.40625 C-143.91854492 198.42341325 -154.25811578 176.93549045 -160 156 C-160.33902344 154.82566406 -160.67804688 153.65132812 -161.02734375 152.44140625 C-168.9124458 119.26583863 -161.43489595 83.75343014 -144 55 C-138.81427154 47.02007379 -132.50490675 39.91753144 -126 33 C-125.4740625 32.40960938 -124.948125 31.81921875 -124.40625 31.2109375 C-109.48290174 15.14549626 -87.91504331 4.59684833 -67 -1 C-65.74058594 -1.33902344 -64.48117188 -1.67804688 -63.18359375 -2.02734375 C-42.97721767 -6.4519488 -19.8163665 -5.82348614 0 0 Z " fill="#000000" transform="translate(163,4)"/>
<path d="M0 0 C0.66 0 1.32 0 2 0 C11.03515625 15.81152344 11.03515625 15.81152344 20.0703125 31.62304688 C20.40102753 32.20179565 20.73174255 32.78054443 21.07247925 33.37683105 C22.06021635 35.1053786 23.04793047 36.83393929 24.03564453 38.5625 C25.35418952 40.8698718 26.67285083 43.17717665 27.99169922 45.484375 C31.0141307 50.77217704 34.03543036 56.06060988 37.05108643 61.35227966 C38.40638353 63.73029895 39.76244001 66.10788467 41.11865234 68.48538208 C41.78560555 69.65487611 42.45227566 70.82453162 43.11865234 71.99435425 C46.74102957 78.3519982 50.39255999 84.69010095 54.1171875 90.98828125 C54.77058105 92.0959082 55.42397461 93.20353516 56.09716797 94.34472656 C57.33774326 96.44259445 58.58390326 98.53717287 59.83642578 100.62792969 C60.38540527 101.55637695 60.93438477 102.48482422 61.5 103.44140625 C61.9846875 104.25295166 62.469375 105.06449707 62.96875 105.90063477 C64 108 64 108 64 111 C22.42 111 -19.16 111 -62 111 C-60.49435603 107.23589007 -58.96798631 103.96459936 -57.015625 100.44921875 C-56.41741943 99.37075684 -55.81921387 98.29229492 -55.20288086 97.18115234 C-54.55215348 96.0164714 -53.90118697 94.85192404 -53.25 93.6875 C-52.91775421 93.09108704 -52.58550842 92.49467407 -52.24319458 91.88018799 C-47.01251873 82.49192357 -41.64806942 73.18787507 -36.20214844 63.92260742 C-31.44360975 55.81048926 -26.84526472 47.61543986 -22.27392578 39.39672852 C-17.47511417 30.79203288 -12.53439977 22.27526106 -7.52929688 13.7890625 C-4.86280496 9.25633885 -2.25939491 4.75031791 0 0 Z " fill="#FBFBFB" transform="translate(128,63)"/>
</svg>
